# xmcd CD database file
#
# Track frame offsets:
#	150
#	18882
#	35477
#	57547
#	79177
#	96852
#	116302
#	137802
#	153472
#	175315
#	200587
#	220152
#	238057
#
# Disc length: 3424 seconds
#
# Revision: 1
# Processed by: cddbd v1.5.2PL0 Copyright (c) Steve Scherf et al.
# Submitted via: CDex 1.51
#
DISCID=b20d5e0d
DTITLE=SEVENDUST - SEVENDUST
DYEAR=1997
DGENRE=Loud Rock
TTITLE0=Black
TTITLE1=Bitch
TTITLE2=Terminator
TTITLE3=Too Close To Hate
TTITLE4=Wired
TTITLE5=Prayer
TTITLE6=Face
TTITLE7=Speak
TTITLE8=Will It Bleed
TTITLE9=My Ruin
TTITLE10=Born To Die
TTITLE11=Bitch (live) *
TTITLE12=Prayer (live) *
EXTD=YEAR: 1997
EXTT0=
EXTT1=
EXTT2=
EXTT3=
EXTT4=
EXTT5=
EXTT6=
EXTT7=
EXTT8=
EXTT9=
EXTT10=
EXTT11=
EXTT12=
PLAYORDER=
